<svg viewBox="0 0 200 60" fill="none" xmlns="http://www.w3.org/2000/svg" width="400" height="120">
  <!-- Shield icon -->
  <g transform="translate(10, 2) scale(1.75)">
    <path d="M16 2L4 7v9c0 7.18 5.12 13.88 12 15.5C22.88 29.88 28 23.18 28 16V7L16 2z" fill="hsl(220, 60%, 22%)" opacity="0.1" stroke="hsl(220, 60%, 22%)" stroke-width="1.5" stroke-linejoin="round"/>
    <path d="M9 19h14M10.5 17l1.5-3h8l1.5 3M10 19a1 1 0 1 0 2 0 1 1 0 0 0-2 0zM20 19a1 1 0 1 0 2 0 1 1 0 0 0-2 0z" stroke="hsl(220, 60%, 22%)" stroke-width="1.3" stroke-linecap="round" stroke-linejoin="round" fill="none"/>
    <line x1="12" y1="12" x2="20" y2="12" stroke="hsl(220, 60%, 22%)" stroke-width="1" stroke-linecap="round" opacity="0.5"/>
  </g>
  <!-- Text -->
  <text x="72" y="32" font-family="system-ui, -apple-system, sans-serif" font-size="22" font-weight="600" fill="hsl(220, 60%, 22%)" letter-spacing="-0.5">Oldtimer</text>
  <text x="72" y="50" font-family="system-ui, -apple-system, sans-serif" font-size="11" font-weight="500" fill="hsl(220, 60%, 22%)" opacity="0.6" letter-spacing="2.5">DOCS</text>
</svg>
