<svg viewBox="0 0 512 512" fill="none" xmlns="http://www.w3.org/2000/svg">
  <rect width="512" height="512" rx="96" fill="hsl(220, 60%, 22%)"/>
  <!-- Shield shape -->
  <path d="M256 80L128 160v128c0 91.5 54.6 176.6 128 197.1 73.4-20.5 128-105.6 128-197.1V160L256 80z" fill="hsl(220, 60%, 32%)" stroke="hsl(40, 30%, 90%)" stroke-width="6" stroke-linejoin="round"/>
  <!-- Classic car silhouette -->
  <path d="M160 320h192M176 288l24-48h112l24 48M168 320a16 16 0 1 0 32 0 16 16 0 0 0-32 0zM312 320a16 16 0 1 0 32 0 16 16 0 0 0-32 0z" stroke="hsl(40, 30%, 90%)" stroke-width="10" stroke-linecap="round" stroke-linejoin="round" fill="none"/>
  <!-- Horizontal accent line -->
  <line x1="208" y1="224" x2="304" y2="224" stroke="hsl(40, 30%, 90%)" stroke-width="6" stroke-linecap="round" opacity="0.5"/>
</svg>
